<svg width="4" height="14" viewBox="0 0 4 14" fill="none" xmlns="http://www.w3.org/2000/svg">
<path d="M3.77734 12.269C3.77734 12.6669 3.61931 13.0484 3.338 13.3297C3.0567 13.611 2.67517 13.769 2.27734 13.769C1.87952 13.769 1.49799 13.611 1.21668 13.3297C0.935379 13.0484 0.777344 12.6669 0.777344 12.269C0.777344 11.8712 0.935379 11.4897 1.21668 11.2084C1.49799 10.9271 1.87952 10.769 2.27734 10.769C2.67517 10.769 3.0567 10.9271 3.338 11.2084C3.61931 11.4897 3.77734 11.8712 3.77734 12.269ZM3.77734 7.26904C3.77734 7.66687 3.61931 8.0484 3.338 8.3297C3.0567 8.61101 2.67517 8.76904 2.27734 8.76904C1.87952 8.76904 1.49799 8.61101 1.21668 8.3297C0.935379 8.0484 0.777344 7.66687 0.777344 7.26904C0.777344 6.87122 0.935379 6.48969 1.21668 6.20838C1.49799 5.92708 1.87952 5.76904 2.27734 5.76904C2.67517 5.76904 3.0567 5.92708 3.338 6.20838C3.61931 6.48969 3.77734 6.87122 3.77734 7.26904ZM3.77734 2.26904C3.77734 2.66687 3.61931 3.0484 3.338 3.3297C3.0567 3.61101 2.67517 3.76904 2.27734 3.76904C1.87952 3.76904 1.49799 3.61101 1.21668 3.3297C0.935379 3.0484 0.777344 2.66687 0.777344 2.26904C0.777344 1.87122 0.935379 1.48969 1.21668 1.20838C1.49799 0.927078 1.87952 0.769043 2.27734 0.769043C2.67517 0.769043 3.0567 0.927078 3.338 1.20838C3.61931 1.48969 3.77734 1.87122 3.77734 2.26904Z" fill="white"/>
</svg>
