<svg width="138" height="126" viewBox="0 0 138 126" fill="none" xmlns="http://www.w3.org/2000/svg">
<path opacity="0.2" d="M80.4809 81.9631L41.5771 16.303L98.339 49.9429L80.4809 81.9631Z" stroke="#EB5757" stroke-miterlimit="10"/>
<path opacity="0.2" d="M78.5537 83.468L41.6458 81.6691L39.6796 17.8406" stroke="#EB5757" stroke-miterlimit="10"/>
<path opacity="0.2" d="M41.0372 82.0226L60.9462 52.4212L98.8235 49.9321" stroke="#EB5757" stroke-miterlimit="10"/>
<path opacity="0.2" d="M44.0383 84.5614L81.5983 86.4741L99.032 53.2585L95.7069 110.605L44.0383 84.5614Z" stroke="#EB5757" stroke-miterlimit="10"/>
<path opacity="0.2" d="M81.74 86.6478L94.8931 109.457" stroke="#EB5757" stroke-miterlimit="10"/>
<path opacity="0.2" d="M41.769 81.201C41.571 80.8684 41.2869 80.5938 40.9528 80.4122C40.6186 80.2305 40.2493 80.1499 39.8918 80.1806C39.5343 80.2113 39.2046 80.3518 38.9446 80.5845C38.6845 80.8171 38.5058 81.1313 38.431 81.4873C38.3563 81.8433 38.3889 82.2251 38.5247 82.5842C38.6605 82.9433 38.8934 83.2637 39.1939 83.5046C39.4943 83.7455 39.8489 83.8962 40.2125 83.9375C40.5762 83.9789 40.9326 83.909 41.2366 83.7368C41.4385 83.624 41.6125 83.4688 41.7487 83.2801C41.8848 83.0914 41.9804 82.873 42.0298 82.6373C42.0793 82.4017 42.0817 82.1535 42.037 81.907C41.9922 81.6605 41.9011 81.4206 41.769 81.201V81.201Z" stroke="#EB5757" stroke-miterlimit="10"/>
<path opacity="0.2" d="M79.7051 80.5065C79.507 80.1774 79.224 79.9063 78.8918 79.7273C78.5596 79.5484 78.1931 79.4696 77.8385 79.5011C77.4839 79.5325 77.1572 79.6727 76.8994 79.9039C76.6417 80.1351 76.4646 80.4471 76.3904 80.8003C76.3163 81.1536 76.3483 81.5324 76.4826 81.8889C76.617 82.2454 76.8475 82.5636 77.1451 82.8035C77.4427 83.0433 77.7941 83.194 78.155 83.2365C78.5158 83.279 78.8699 83.2115 79.1726 83.0424C79.3746 82.9296 79.5486 82.7744 79.6847 82.5857C79.8208 82.397 79.9164 82.1785 79.9659 81.9429C80.0154 81.7072 80.0178 81.459 79.9731 81.2125C79.9283 80.966 79.8372 80.7261 79.7051 80.5065V80.5065Z" stroke="#EB5757" stroke-miterlimit="10"/>
<path opacity="0.2" d="M100.356 47.9366C100.159 47.6027 99.8761 47.3265 99.5422 47.1431C99.2083 46.9597 98.8388 46.8774 98.4806 46.9066C98.1224 46.9358 97.7918 47.0752 97.5305 47.3071C97.2693 47.539 97.0894 47.8529 97.0136 48.209C96.9378 48.5651 96.9696 48.9473 97.1048 49.3071C97.2401 49.6668 97.4728 49.9879 97.7734 50.2295C98.0739 50.4711 98.4287 50.6223 98.7928 50.664C99.1569 50.7056 99.5138 50.6358 99.8181 50.4634C100.224 50.2364 100.509 49.8426 100.61 49.3687C100.711 48.8949 100.62 48.3797 100.356 47.9366V47.9366Z" stroke="#EB5757" stroke-miterlimit="10"/>
<path opacity="0.2" d="M43.228 17.471C43.0317 17.1375 42.7489 16.8616 42.4154 16.6781C42.082 16.4947 41.713 16.4121 41.3552 16.4408C40.9973 16.4694 40.6667 16.6081 40.4053 16.8391C40.1439 17.0702 39.9634 17.3832 39.8867 17.7386C39.8101 18.094 39.8406 18.4757 39.9746 18.8354C40.1086 19.1951 40.34 19.5165 40.6393 19.759C40.9387 20.0014 41.2926 20.154 41.6563 20.1974C42.0199 20.2407 42.3769 20.1729 42.6819 20.0025C43.0891 19.775 43.3751 19.3811 43.4774 18.9067C43.5797 18.4324 43.4901 17.9162 43.228 17.471V17.471Z" stroke="#EB5757" stroke-miterlimit="10"/>
<path opacity="0.2" d="M82.2173 85.0843C82.0195 84.7521 81.7359 84.4778 81.4022 84.2961C81.0685 84.1144 80.6997 84.0336 80.3425 84.0637C79.9853 84.0938 79.6557 84.2336 79.3955 84.4654C79.1352 84.6971 78.9559 85.0105 78.8803 85.3658C78.8047 85.721 78.8361 86.1023 78.9706 86.4614C79.1051 86.8205 79.3367 87.1411 79.636 87.3829C79.9353 87.6247 80.2889 87.7768 80.6522 87.8198C81.0154 87.8629 81.3719 87.795 81.6766 87.6248C81.8799 87.5128 82.0553 87.3579 82.1927 87.1692C82.3302 86.9806 82.4268 86.7617 82.4771 86.5255C82.5274 86.2892 82.5303 86.0402 82.4857 85.7928C82.4411 85.5454 82.3499 85.3046 82.2173 85.0843V85.0843Z" stroke="#EB5757" stroke-miterlimit="10"/>
<path opacity="0.2" d="M63.2095 52.1222C63.0117 51.7899 62.7281 51.5156 62.3943 51.334C62.0606 51.1523 61.6919 51.0714 61.3347 51.1015C60.9775 51.1317 60.6479 51.2714 60.3877 51.5032C60.1274 51.735 59.9481 52.0483 59.8725 52.4036C59.7969 52.7589 59.8283 53.1402 59.9628 53.4992C60.0973 53.8583 60.3289 54.179 60.6282 54.4208C60.9275 54.6626 61.2811 54.8146 61.6443 54.8577C62.0076 54.9007 62.364 54.8328 62.6687 54.6626C62.8721 54.5506 63.0475 54.3958 63.1849 54.2071C63.3223 54.0184 63.419 53.7996 63.4693 53.5633C63.5196 53.3271 63.5225 53.078 63.4779 52.8307C63.4333 52.5833 63.3421 52.3425 63.2095 52.1222V52.1222Z" stroke="#EB5757" stroke-miterlimit="10"/>
<path opacity="0.2" d="M102.402 52.2269C102.203 51.896 101.919 51.6234 101.585 51.4434C101.251 51.2635 100.882 51.1844 100.526 51.2159C100.169 51.2475 99.8406 51.3885 99.5815 51.6209C99.3224 51.8534 99.1443 52.167 99.0697 52.5222C98.9951 52.8774 99.0274 53.2582 99.1624 53.6166C99.2975 53.9751 99.5292 54.2951 99.8284 54.5362C100.128 54.7773 100.481 54.9288 100.844 54.9716C101.207 55.0143 101.563 54.9464 101.867 54.7764C102.07 54.663 102.245 54.5069 102.382 54.3172C102.519 54.1275 102.615 53.9079 102.664 53.671C102.714 53.4341 102.717 53.1845 102.672 52.9367C102.627 52.6889 102.535 52.4477 102.402 52.2269Z" stroke="#EB5757" stroke-miterlimit="10"/>
<path opacity="0.2" d="M96.2536 108.724C96.057 108.39 95.7738 108.114 95.4399 107.931C95.106 107.747 94.7365 107.665 94.3783 107.694C94.0202 107.723 93.6895 107.863 93.4283 108.095C93.167 108.326 92.9871 108.64 92.9113 108.997C92.8355 109.353 92.8673 109.735 93.0026 110.095C93.1378 110.454 93.3705 110.775 93.6711 111.017C93.9716 111.259 94.3265 111.41 94.6905 111.451C95.0546 111.493 95.4115 111.423 95.7158 111.251C96.1222 111.024 96.4072 110.63 96.508 110.156C96.6089 109.682 96.5174 109.167 96.2536 108.724V108.724Z" stroke="#EB5757" stroke-miterlimit="10"/>
<path opacity="0.2" d="M45.1213 85.5122C44.9232 85.183 44.6402 84.9119 44.308 84.7329C43.9758 84.554 43.6093 84.4753 43.2547 84.5067C42.9002 84.5381 42.5734 84.6783 42.3157 84.9095C42.058 85.1408 41.8809 85.4527 41.8067 85.8059C41.7325 86.1592 41.7646 86.538 41.8989 86.8945C42.0332 87.251 42.2637 87.5693 42.5613 87.8091C42.859 88.0489 43.2104 88.1996 43.5712 88.2421C43.9321 88.2846 44.2862 88.2171 44.5889 88.048C44.7908 87.9352 44.9648 87.78 45.101 87.5913C45.2371 87.4026 45.3327 87.1842 45.3821 86.9485C45.4316 86.7128 45.4341 86.4646 45.3893 86.2181C45.3445 85.9716 45.2535 85.7317 45.1213 85.5122V85.5122Z" stroke="#EB5757" stroke-miterlimit="10"/>
</svg>
