<svg width="20" height="21" viewBox="0 0 20 21" fill="none" xmlns="http://www.w3.org/2000/svg">
<g filter="url(#filter0_d_30_1564)">
<path d="M6.04946 0.107911C5.86659 0.107767 5.68549 0.144904 5.5165 0.2172C5.34751 0.289496 5.19394 0.395534 5.06456 0.529258C4.93518 0.662981 4.83253 0.82177 4.76247 0.996553C4.69241 1.17134 4.65632 1.35869 4.65625 1.54791C4.65625 2.34427 5.27985 3.00427 6.04788 3.00427C6.81696 3.00427 7.44109 2.34427 7.44109 1.549C7.44123 1.35981 7.40533 1.17244 7.33546 0.997602C7.26558 0.822768 7.1631 0.663894 7.03386 0.530062C6.90462 0.39623 6.75116 0.290063 6.58226 0.217628C6.41335 0.145193 6.2323 0.107911 6.04946 0.107911V0.107911ZM12.8452 3.92609C11.6755 3.92609 11.0066 4.55882 10.6851 5.18827H10.6513V4.09573H8.34617V12.1079H10.7483V8.14191C10.7483 7.09682 10.8242 6.08664 12.074 6.08664C13.306 6.08664 13.3239 7.27846 13.3239 8.20791V12.1079H15.726V7.70718C15.726 5.55373 15.2785 3.92609 12.8452 3.92609ZM4.8476 4.09518V12.1079H7.25132V4.09518H4.8476V4.09518Z" fill="white"/>
<path d="M6.04946 0.10791L6.04907 0.60791C5.9343 0.60782 5.82021 0.631105 5.71317 0.676899C5.60608 0.722712 5.50763 0.790388 5.42391 0.876925C5.34015 0.963498 5.27282 1.06722 5.22658 1.18258C5.18035 1.29792 5.15632 1.4221 5.15625 1.54791L6.04946 0.10791ZM6.04946 0.10791L6.04946 0.607911C6.16419 0.607911 6.27822 0.631282 6.38519 0.677156C6.49221 0.723048 6.59057 0.790795 6.67419 0.877389C6.75785 0.964019 6.82505 1.06778 6.87116 1.18316C6.91729 1.29857 6.94118 1.42281 6.94109 1.54864V1.549C6.94109 2.09073 6.51875 2.50427 6.04788 2.50427C5.57883 2.50427 5.15634 2.09158 5.15625 1.54809L6.04946 0.10791ZM10.6851 5.68827H10.9911L11.1303 5.41573C11.3815 4.92414 11.8943 4.42609 12.8452 4.42609C13.9349 4.42609 14.4693 4.77875 14.7723 5.27113C15.1095 5.81918 15.226 6.63973 15.226 7.70718V11.6079H13.8239V8.20791V8.1974C13.8239 7.75472 13.8239 7.13226 13.6279 6.62004C13.5239 6.34826 13.3556 6.07968 13.0817 5.88196C12.8054 5.68257 12.4653 5.58664 12.074 5.58664C11.6948 5.58664 11.36 5.6635 11.0801 5.83342C10.7969 6.00539 10.6092 6.24892 10.4878 6.51445C10.2602 7.0121 10.2483 7.63599 10.2483 8.14191V11.6079H8.84617V4.59573H10.1513V5.18827V5.68827H10.6513H10.6851ZM6.75132 11.6079H5.3476V4.59518H6.75132V11.6079Z" stroke="white"/>
</g>
<defs>
<filter id="filter0_d_30_1564" x="0.65625" y="0.10791" width="19.0698" height="20" filterUnits="userSpaceOnUse" color-interpolation-filters="sRGB">
<feFlood flood-opacity="0" result="BackgroundImageFix"/>
<feColorMatrix in="SourceAlpha" type="matrix" values="0 0 0 0 0 0 0 0 0 0 0 0 0 0 0 0 0 0 127 0" result="hardAlpha"/>
<feOffset dy="4"/>
<feGaussianBlur stdDeviation="2"/>
<feComposite in2="hardAlpha" operator="out"/>
<feColorMatrix type="matrix" values="0 0 0 0 0 0 0 0 0 0 0 0 0 0 0 0 0 0 0.25 0"/>
<feBlend mode="normal" in2="BackgroundImageFix" result="effect1_dropShadow_30_1564"/>
<feBlend mode="normal" in="SourceGraphic" in2="effect1_dropShadow_30_1564" result="shape"/>
</filter>
</defs>
</svg>
