<svg width="15" height="15" viewBox="0 0 15 15" fill="none" xmlns="http://www.w3.org/2000/svg">
<g clip-path="url(#clip0_706_79)">
<path d="M10.3443 1.02555L10.3568 1.02597C10.8577 1.03662 11.3536 1.13497 11.8234 1.31715C12.2046 1.4704 12.5521 1.70457 12.8432 2.0058C13.1345 2.30721 13.3629 2.66909 13.5129 3.06887C13.6935 3.56533 13.7894 4.09089 13.7963 4.622L13.7964 4.63291L13.797 4.64379C13.8381 5.36922 13.8382 5.59569 13.8397 7.48789V7.49427C13.8397 7.49414 13.8397 7.4944 13.8397 7.49427C13.8397 9.38652 13.83 9.61569 13.7982 10.3522L13.7978 10.3641C13.7876 10.8902 13.6921 11.4077 13.5144 11.8981C13.3641 12.2977 13.1357 12.6594 12.8445 12.9607C12.5534 13.262 12.2059 13.4962 11.8248 13.6497C11.3551 13.8318 10.8594 13.9298 10.3587 13.94L10.3486 13.9402L10.3386 13.9409C9.64017 13.9832 9.42107 13.9834 7.58613 13.9834C5.75821 13.9834 5.53795 13.9733 4.82645 13.9405L4.82038 13.9402C4.31777 13.9231 3.82131 13.8174 3.3523 13.6273L3.35037 13.6265C2.96815 13.4734 2.61971 13.239 2.32786 12.9373C2.03657 12.6361 1.80811 12.2744 1.65793 11.8749C1.48011 11.3836 1.38461 10.866 1.37443 10.3408L1.37425 10.3315L1.37372 10.3222C1.33267 9.5969 1.33252 9.36936 1.33252 7.47098C1.33252 5.57915 1.34224 5.35038 1.37406 4.61306L1.37444 4.60064C1.38401 4.07671 1.47996 3.55861 1.65789 3.06874C1.8078 2.66893 2.03613 2.30704 2.32739 2.00565C2.6185 1.70442 2.96601 1.4703 3.34725 1.31718C3.81694 1.13506 4.3126 1.03669 4.81333 1.02597L4.82286 1.02577L4.83237 1.0252C5.53111 0.98356 5.75049 0.983398 7.58538 0.983398C9.41372 0.983398 9.6338 0.992691 10.3443 1.02555ZM3.61331 7.4671C3.61331 9.70926 5.3731 11.5552 7.58088 11.5552C8.63876 11.5552 9.64971 11.1202 10.3924 10.3517C11.1344 9.58385 11.5484 8.54592 11.5484 7.4671C11.5484 6.57644 11.2663 5.71366 10.7503 5.0077C10.8858 5.05635 11.0324 5.08297 11.1865 5.08297C11.9251 5.08297 12.4943 4.46846 12.4943 3.74629C12.4943 3.57313 12.4613 3.40129 12.3969 3.24044C12.3325 3.07956 12.2377 2.9323 12.1171 2.80748C11.9964 2.68262 11.8523 2.58264 11.6923 2.51409C11.5324 2.44553 11.3603 2.41 11.1861 2.41C11.0119 2.41 10.8398 2.44553 10.6798 2.51409C10.5199 2.58264 10.3757 2.68262 10.2551 2.80748C10.1344 2.9323 10.0396 3.07956 9.97521 3.24044C9.91082 3.40129 9.87788 3.57313 9.87788 3.74629C9.87788 3.90043 9.90378 4.04966 9.95171 4.18907C9.27215 3.66729 8.44207 3.37901 7.58088 3.37901C5.3731 3.37901 3.61331 5.22494 3.61331 7.4671Z" fill="white"/>
<path d="M13.8397 7.49427V7.48789C13.8382 5.59569 13.8381 5.36922 13.797 4.64379L13.7964 4.63291L13.7963 4.622C13.7894 4.09089 13.6935 3.56533 13.5129 3.06887C13.3629 2.66909 13.1345 2.30721 12.8432 2.0058C12.5521 1.70457 12.2046 1.4704 11.8234 1.31715C11.3536 1.13497 10.8577 1.03662 10.3568 1.02597L10.3443 1.02555C9.6338 0.992691 9.41372 0.983398 7.58538 0.983398C5.75049 0.983398 5.53111 0.98356 4.83237 1.0252L4.82286 1.02577L4.81333 1.02597C4.3126 1.03669 3.81694 1.13506 3.34725 1.31718C2.96601 1.4703 2.6185 1.70442 2.32739 2.00565C2.03613 2.30704 1.8078 2.66893 1.65789 3.06874C1.47996 3.55861 1.38401 4.07671 1.37444 4.60064L1.37406 4.61306C1.34224 5.35038 1.33252 5.57915 1.33252 7.47098C1.33252 9.36936 1.33267 9.5969 1.37372 10.3222L1.37425 10.3315L1.37443 10.3408C1.38461 10.866 1.48011 11.3836 1.65793 11.8749C1.80811 12.2744 2.03657 12.6361 2.32786 12.9373C2.61971 13.239 2.96815 13.4734 3.35037 13.6265L3.3523 13.6273C3.82131 13.8174 4.31777 13.9231 4.82038 13.9402L4.82645 13.9405C5.53795 13.9733 5.75821 13.9834 7.58613 13.9834C9.42107 13.9834 9.64017 13.9832 10.3386 13.9409L10.3486 13.9402L10.3587 13.94C10.8594 13.9298 11.3551 13.8318 11.8248 13.6497C12.2059 13.4962 12.5534 13.262 12.8445 12.9607C13.1357 12.6594 13.3641 12.2977 13.5144 11.8981C13.6921 11.4077 13.7876 10.8902 13.7978 10.3641L13.7982 10.3522C13.83 9.61569 13.8397 9.38652 13.8397 7.49427ZM13.8397 7.49427C13.8397 7.4944 13.8397 7.49414 13.8397 7.49427ZM3.61331 7.4671C3.61331 9.70926 5.3731 11.5552 7.58088 11.5552C8.63876 11.5552 9.64971 11.1202 10.3924 10.3517C11.1344 9.58385 11.5484 8.54592 11.5484 7.4671C11.5484 6.57644 11.2663 5.71366 10.7503 5.0077C10.8858 5.05635 11.0324 5.08297 11.1865 5.08297C11.9251 5.08297 12.4943 4.46846 12.4943 3.74629C12.4943 3.57313 12.4613 3.40129 12.3969 3.24044C12.3325 3.07956 12.2377 2.9323 12.1171 2.80748C11.9964 2.68262 11.8523 2.58264 11.6923 2.51409C11.5324 2.44553 11.3603 2.41 11.1861 2.41C11.0119 2.41 10.8398 2.44553 10.6798 2.51409C10.5199 2.58264 10.3757 2.68262 10.2551 2.80748C10.1344 2.9323 10.0396 3.07956 9.97521 3.24044C9.91082 3.40129 9.87788 3.57313 9.87788 3.74629C9.87788 3.90043 9.90378 4.04966 9.95171 4.18907C9.27215 3.66729 8.44207 3.37901 7.58088 3.37901C5.3731 3.37901 3.61331 5.22494 3.61331 7.4671Z" stroke="white"/>
<path d="M9.33303 7.46698C9.33303 8.49431 8.53247 9.29772 7.58059 9.29772C6.6287 9.29772 5.82812 8.49431 5.82812 7.46698C5.82812 6.43964 6.6287 5.63623 7.58059 5.63623C8.53247 5.63623 9.33303 6.43964 9.33303 7.46698Z" fill="white" stroke="white"/>
</g>
<defs>
<clipPath id="clip0_706_79">
<rect width="15" height="15" fill="white"/>
</clipPath>
</defs>
</svg>
