<svg width="114" height="72" viewBox="0 0 114 72" fill="none" xmlns="http://www.w3.org/2000/svg">
<path d="M21.6621 48.1703L12.9932 56.3674V70.6977H21.6621V48.1703Z" fill="#C08ACF"/>
<path d="M30.331 42.8038H27.4414L21.6621 48.1703V70.6977H30.331V42.8038Z" fill="#280074"/>
<path d="M39 42.8038H30.3311V70.6977H39V42.8038Z" fill="#C08ACF"/>
<path d="M47.6098 42.8038H38.9409V70.6977H47.6098V42.8038Z" fill="#280074"/>
<path d="M56.2198 36.0221L49.0252 42.8039H47.6099V70.6978H56.2198V36.0221Z" fill="#C08ACF"/>
<path d="M64.8886 29.1813H63.4733L56.2197 36.022V70.6977H64.8886V29.1813Z" fill="#280074"/>
<path d="M73.5576 29.1813H64.8887V70.6977H73.5576V29.1813Z" fill="#C08ACF"/>
<path d="M82.2265 29.1813H73.5576V70.6977H82.2265V29.1813Z" fill="#280074"/>
<path d="M90.8364 23.7559L84.9982 29.1813H82.1675V70.6977H90.8364V23.7559Z" fill="#C08ACF"/>
<path d="M99.4464 15.6177L90.8364 23.7558V70.6977H99.4464V15.6177Z" fill="#280074"/>
<path d="M103.928 11.4307L85.0571 29.1813H63.4732L49.0251 42.8039H27.4412L10.0444 59.1981" stroke="#4D0063" stroke-miterlimit="10"/>
<path d="M94.1387 13.1408L106.405 9.13074L101.451 20.1585L101.569 13.7306L94.1387 13.1408Z" fill="#4D0063"/>
<path d="M46.4893 23.9917C45.9585 26.7634 45.015 29.653 44.1304 31.9529C44.6611 31.9529 45.6636 32.0119 46.1944 33.0734C46.9021 34.4888 48.2584 37.4963 49.143 39.4424H49.9096V31.0684C49.9096 26.1737 47.3738 24.4045 46.4893 23.9917Z" fill="#280074" stroke="#4D0063" stroke-miterlimit="10"/>
<path d="M29.8003 23.9917C30.3311 26.7634 31.2746 29.653 32.1592 31.9529C31.6284 31.9529 30.6259 32.0119 30.0952 33.0734C29.3875 34.4888 28.0311 37.4963 27.1466 39.4424H26.3799V31.0684C26.3209 26.1737 28.8567 24.4045 29.8003 23.9917Z" fill="#280074" stroke="#4D0063" stroke-miterlimit="10"/>
<path d="M29.8003 23.9917C30.3311 26.7634 31.2746 29.653 32.1592 31.9529C31.6284 31.9529 30.6259 32.0119 30.0952 33.0734C29.3875 34.4888 28.0311 37.4963 27.1466 39.4424H26.3799V31.0684C26.3209 26.1737 28.8567 24.4045 29.8003 23.9917Z" fill="#280074"/>
<path d="M36.464 2.11303C33.9872 5.29753 29.2104 12.2563 29.2104 20.3354C29.2104 27.3531 34.1051 36.9066 34.1051 36.9066H38.0563H41.9484C41.9484 36.9066 46.8431 27.3531 46.8431 20.3354C46.8431 12.3152 42.1254 5.3565 39.5896 2.172C38.705 0.992559 37.4076 0.992559 36.464 2.11303Z" fill="white" stroke="#4D0063" stroke-miterlimit="10"/>
<path d="M42.1253 36.9066H34.1641V38.7348H42.1253V36.9066Z" fill="#280074" stroke="#4D0063" stroke-miterlimit="10"/>
<path d="M42.1256 38.7347C42.1256 38.7347 46.1357 42.8038 44.6614 48.4652C44.6614 48.4652 43.7179 45.5755 42.4205 44.3371C42.4205 44.3371 43.8358 47.2267 41.1231 51.1779C38.4104 55.129 36.1694 57.311 37.5848 59.0801C37.5848 59.0801 31.8055 50.3523 34.6951 44.573C34.6951 44.573 32.4542 48.1703 32.5721 50.5881C32.5721 50.5881 30.9209 43.5115 34.1644 38.7937H42.1256V38.7347Z" fill="#EB5757" stroke="#4D0063" stroke-miterlimit="10"/>
<path d="M37.9975 55.4828V38.7347H34.1053C30.8618 43.5115 32.5131 50.5292 32.5131 50.5292C32.3361 48.1703 34.6361 44.514 34.6361 44.514C32.1002 49.5856 36.1693 56.8982 37.2898 58.6673C36.818 57.7828 37.2308 56.7802 37.9975 55.4828Z" fill="#EB5757"/>
<path d="M35.4616 38.7347C35.4616 38.7347 33.8694 40.0321 34.2822 42.6269C34.2822 42.6269 34.5181 41.7423 35.6975 41.2116C35.6975 41.2116 35.1078 45.9883 36.9949 48.5831C36.9949 48.5831 37.1129 44.6909 38.7051 44.1012C40.3563 43.5115 42.0076 41.3295 41.064 38.7347H35.4616Z" fill="#EB7A2C" stroke="#4D0063" stroke-miterlimit="10"/>
<path d="M37.9975 38.7347H35.4616C35.4616 38.7347 33.8694 40.0321 34.2822 42.6269C34.2822 42.6269 34.5181 41.7423 35.6975 41.2116C35.6975 41.2116 35.1078 45.9883 36.9949 48.5831C36.9949 48.5831 37.0539 45.9293 37.9975 44.6909V38.7347Z" fill="#EB7A2C"/>
<path d="M38.0563 1.28748C37.5255 1.34645 37.0538 1.58234 36.582 2.11309C34.0462 5.29759 29.2104 12.2563 29.2104 20.3355C29.2104 27.3532 34.1641 36.9067 34.1641 36.9067H38.0563V1.28748Z" fill="#C3C5CA"/>
<path d="M38.0564 6.65395C39.5897 6.65395 40.946 6.30011 42.1255 5.65142C41.2409 4.23609 40.3563 3.05664 39.6486 2.17206C38.7051 0.992615 37.4667 0.992615 36.5231 2.17206C35.8154 3.05664 34.9309 4.23609 33.9873 5.71039C35.1078 6.30011 36.5231 6.65395 38.0564 6.65395Z" fill="#EB5757" stroke="#4D0063" stroke-miterlimit="10"/>
<path d="M37.8204 1.28748C37.7614 1.28748 37.7614 1.28748 37.8204 1.28748C37.7614 1.28748 37.7614 1.28748 37.7024 1.28748H37.6435H37.5845H37.5255H37.4666H37.4076H37.3486H37.2896H37.2307H37.1717H37.1127H37.0538H36.9948C36.9948 1.28748 36.9358 1.28748 36.9358 1.34645C36.9358 1.34645 36.8768 1.34645 36.8768 1.40542C36.8768 1.40542 36.8768 1.40542 36.8179 1.46439C36.8179 1.46439 36.7589 1.46439 36.7589 1.52336C36.7589 1.52336 36.6999 1.52336 36.6999 1.58234C36.6999 1.58234 36.6409 1.58234 36.6409 1.64131C36.6409 1.64131 36.582 1.64131 36.582 1.70028C36.582 1.70028 36.523 1.70028 36.523 1.75925L36.464 1.81823C36.464 1.81823 36.464 1.81823 36.4051 1.8772L36.3461 1.93617C36.3461 1.93617 36.3461 1.93617 36.2871 1.99514L36.2281 2.05411C36.2281 2.05411 36.2281 2.05411 36.2281 2.11309C36.1692 2.17206 36.1692 2.17206 36.1102 2.23103C36.1102 2.23103 36.1102 2.23103 36.1102 2.29C36.1102 2.34898 36.0512 2.34898 36.0512 2.40795L35.9923 2.46692C35.9923 2.52589 35.9333 2.52589 35.9333 2.58486L35.8743 2.64384C35.8743 2.64384 35.8153 2.70281 35.8153 2.76178C35.8153 2.76178 35.7564 2.82075 35.7564 2.87972C35.7564 2.9387 35.6974 2.9387 35.6974 2.99767C35.6974 3.05664 35.6384 3.05664 35.6384 3.11561L35.5794 3.17459C35.5794 3.23356 35.5205 3.23356 35.5205 3.29253L35.4615 3.3515C35.4025 3.41047 35.4025 3.46945 35.3436 3.52842C35.3436 3.52842 35.3436 3.58739 35.2846 3.58739C35.2256 3.64636 35.1666 3.70534 35.1077 3.82328C35.1077 3.82328 35.1077 3.82328 35.1077 3.88225C35.0487 3.94122 35.0487 4.0002 34.9897 4.05917C35.1666 3.94122 35.1077 3.94122 35.1077 3.94122C35.0487 4.0002 35.0487 4.05917 34.9897 4.11814L34.9308 4.17711C34.8718 4.23609 34.8718 4.29506 34.8128 4.35403L34.7538 4.413C34.6949 4.47197 34.6949 4.53095 34.6359 4.58992L34.5769 4.64889C34.5179 4.70786 34.5179 4.76684 34.459 4.82581C34.459 4.82581 34.459 4.88478 34.4 4.88478C34.341 4.94375 34.341 5.00272 34.2821 5.0617C34.2821 5.0617 34.2821 5.0617 34.2821 5.12067C34.1641 5.29759 34.0462 5.4745 33.9282 5.65142C35.0487 6.24114 36.4051 6.59497 37.8794 6.65395V1.28748C37.8794 1.28748 37.8794 1.28748 37.8204 1.28748Z" fill="#EB5757"/>
<path d="M43.6588 19.097C43.6588 22.2225 41.123 24.6994 38.0565 24.6994C34.9309 24.6994 32.4541 22.1636 32.4541 19.097C32.4541 15.9715 34.9899 13.4947 38.0565 13.4947C41.123 13.4357 43.6588 15.9715 43.6588 19.097Z" fill="#EB5757" stroke="#4D0063" stroke-miterlimit="10"/>
<path d="M38.0563 13.4357C34.9308 13.4357 32.395 15.9715 32.395 19.038C32.395 22.1636 34.9308 24.6404 37.9974 24.6404V13.4357H38.0563Z" fill="#EB5757"/>
<path d="M42.1846 19.0971C42.1846 21.397 40.2975 23.2841 37.9976 23.2841C35.6977 23.2841 33.8105 21.397 33.8105 19.0971C33.8105 16.7971 35.6977 14.91 37.9976 14.91C40.3565 14.91 42.1846 16.7971 42.1846 19.0971Z" fill="#280074" stroke="#4D0063" stroke-miterlimit="10"/>
<path d="M38.0567 14.91C35.7567 14.91 33.8696 16.7971 33.8696 19.0971C33.8696 21.397 35.7567 23.2841 38.0567 23.2841V14.91Z" fill="#280074"/>
<path d="M37.7026 40.8578C37.7616 41.0936 37.7616 41.3885 37.8206 41.6244H38.4693C38.5282 41.3885 38.5872 41.0936 38.5872 40.8578C38.7052 40.1501 38.8231 39.3835 38.8821 38.6758C39 37.2015 39.059 35.7861 39.059 34.3118C39.059 32.8375 39 31.4222 38.8821 29.9479C38.8231 29.2402 38.7052 28.4736 38.5872 27.7659C38.5282 27.4711 38.4693 27.1762 38.4103 26.8813H37.8206C37.7616 27.1762 37.7026 27.4711 37.6437 27.7659C37.5257 28.4736 37.4078 29.2402 37.3488 29.9479C37.2308 31.4222 37.1719 32.8375 37.1719 34.3118C37.1719 35.7861 37.2308 37.2015 37.3488 38.6758C37.4667 39.4424 37.5847 40.1501 37.7026 40.8578Z" fill="#280074" stroke="#4D0063" stroke-miterlimit="10"/>
<path d="M37.9975 26.8813H37.8206C37.7616 27.1762 37.7026 27.4711 37.6437 27.7659C37.5257 28.4736 37.4078 29.2402 37.3488 29.9479C37.2308 31.4222 37.1719 32.8375 37.1719 34.3118C37.1719 35.7861 37.2308 37.2015 37.3488 38.6758C37.4078 39.3835 37.5257 40.1501 37.6437 40.8578C37.7026 41.0936 37.7026 41.3885 37.7616 41.6244H37.9385V26.8813H37.9975Z" fill="#280074"/>
<path d="M0.903809 70.6976H113.128" stroke="#4D0063" stroke-miterlimit="10"/>
</svg>
