<svg width="129" height="129" viewBox="0 0 129 129" fill="none" xmlns="http://www.w3.org/2000/svg">
<path opacity="0.2" d="M67.1719 69.1584H62.1768V87.2659H67.1719C74.6505 87.2659 76.9778 83.8885 76.9778 77.9142C76.9778 71.9398 74.6505 69.1584 67.1719 69.1584Z" stroke="white" stroke-miterlimit="10"/>
<path opacity="0.2" d="M64.5607 1C51.9918 0.997195 39.7043 4.72175 29.2523 11.7026C18.8003 18.6835 10.6531 28.6071 5.84129 40.2185C1.02943 51.8298 -0.231025 64.6073 2.21933 76.9351C4.66968 89.2628 10.7208 100.587 19.6073 109.476C28.4939 118.364 39.8168 124.418 52.144 126.871C64.4712 129.324 77.249 128.066 88.8614 123.257C100.474 118.448 110.399 110.303 117.382 99.8525C124.366 89.402 128.093 77.1154 128.093 64.5465C128.093 47.6954 121.4 31.5342 109.486 19.6173C97.5714 7.70048 81.4118 1.00376 64.5607 1V1ZM64.5607 118.784C53.8408 118.787 43.3608 115.61 34.4464 109.656C25.5319 103.702 18.5834 95.2384 14.4798 85.335C10.3762 75.4316 9.30176 64.5337 11.3924 54.0197C13.4831 43.5056 18.6449 33.8477 26.225 26.2676C33.8052 18.6875 43.463 13.5256 53.9771 11.435C64.4912 9.3443 75.3891 10.4187 85.2925 14.5224C95.1958 18.626 103.66 25.5745 109.614 34.4889C115.568 43.4034 118.744 53.8833 118.741 64.6032C118.707 78.9572 112.986 92.7127 102.831 102.857C92.6762 113.002 78.9147 118.708 64.5607 118.727V118.784Z" stroke="white" stroke-miterlimit="10"/>
<path opacity="0.2" d="M75.5445 52.1295C75.5445 46.8647 73.2314 44.282 66.6327 44.282H62.1768V60.1615H66.6327C73.1463 60.1615 75.5445 57.3943 75.5445 52.1295Z" stroke="white" stroke-miterlimit="10"/>
<path opacity="0.2" d="M64.5607 14.0837C54.5796 14.0809 44.8218 17.0381 36.5214 22.5813C28.221 28.1245 21.7509 36.0047 17.9293 45.2253C14.1078 54.4458 13.1064 64.5926 15.0519 74.3823C16.9974 84.172 21.8024 93.1649 28.8591 100.224C35.9159 107.282 44.9074 112.09 54.6966 114.038C64.4857 115.986 74.6328 114.988 83.8545 111.169C93.0761 107.35 100.958 100.882 106.504 92.5832C112.049 84.2844 115.009 74.5274 115.009 64.5463C114.994 51.1699 109.675 38.3454 100.217 28.8855C90.7601 19.4256 77.9372 14.1025 64.5607 14.0837V14.0837ZM74.6646 94.1199V105.473H68.2504V94.6024H62.2902V105.458H55.876V94.5882H41.5574V86.0737H44.3956C45.0128 85.9811 45.5822 85.6876 46.0157 85.2386C46.4493 84.7897 46.7227 84.2104 46.7938 83.5903V47.5457C46.7227 46.9257 46.4493 46.3463 46.0157 45.8974C45.5822 45.4485 45.0128 45.155 44.3956 45.0623H41.5574V36.5478H55.8476V25.6209H62.2618V36.5478H68.222V25.6918H74.6362V37.0445C84.7543 38.4636 90.09 43.2033 90.09 51.4624C90.09 58.7564 85.9463 62.3183 78.3258 63.8935V64.2199C87.1809 65.5538 92.0767 69.8962 92.0767 77.7295C92.0767 87.1806 85.5206 92.6015 74.6362 94.1199H74.6646Z" stroke="white" stroke-miterlimit="10"/>
</svg>
