<svg width="346" height="334" viewBox="0 0 346 334" fill="none" xmlns="http://www.w3.org/2000/svg">
<g opacity="0.6">
<path opacity="0.6" d="M204.842 3.79175L114.397 18.7348L40.993 66.5787L4.09424 166.723L48.4646 281.811L143.366 330.572L228.174 317.858L306.756 267.785L344.573 165.871L300.596 52.5532L204.842 3.79175Z" stroke="#0071BC" stroke-width="0.8601" stroke-miterlimit="10"/>
<path opacity="0.6" d="M143.366 330.572L111.317 298.064L107.778 193.529L133.273 88.5343L114.397 18.7346L40.141 113.177L4.09424 166.723L38.3715 221.645L111.317 298.064L228.174 317.857L296.204 226.495L300.595 117.962V52.5531" stroke="#0071BC" stroke-width="0.8601" stroke-miterlimit="10"/>
<path opacity="0.6" d="M40.9929 66.5784L40.1409 113.177L38.3713 221.645L48.4644 281.81" stroke="#0071BC" stroke-width="0.8601" stroke-miterlimit="10"/>
<path opacity="0.6" d="M204.842 3.79175L224.176 41.0838L222.013 149.159L198.288 252.842L228.174 317.858" stroke="#0071BC" stroke-width="0.8601" stroke-miterlimit="10"/>
<path opacity="0.6" d="M114.07 18.7346L224.504 41.2802L300.595 52.5531" stroke="#0071BC" stroke-width="0.8601" stroke-miterlimit="10"/>
<path opacity="0.6" d="M40.272 113.571L132.814 88.4035L224.504 41.2805L300.333 117.7L344.245 165.74L296.204 226.495" stroke="#0071BC" stroke-width="0.8601" stroke-miterlimit="10"/>
<path opacity="0.6" d="M39.9443 113.571L107.319 193.529L197.829 252.842" stroke="#0071BC" stroke-width="0.8601" stroke-miterlimit="10"/>
<path opacity="0.6" d="M306.756 268.178L296.204 226.036L221.555 148.7L133.273 88.1411" stroke="#0071BC" stroke-width="0.8601" stroke-miterlimit="10"/>
<path opacity="0.6" d="M300.595 118.42L222.013 149.158L107.319 193.529L37.9126 222.104" stroke="#0071BC" stroke-width="0.8601" stroke-miterlimit="10"/>
<path opacity="0.6" d="M48.4646 281.811L110.858 297.606L197.371 252.842L296.204 226.495" stroke="#0071BC" stroke-width="0.8601" stroke-miterlimit="10"/>
<g opacity="0.6">
<path opacity="0.6" d="M303.873 52.8153C303.873 54.716 302.365 56.2234 300.464 56.2234C298.564 56.2234 297.056 54.716 297.056 52.8153C297.056 50.9147 298.564 49.4073 300.464 49.4073C302.365 49.3417 303.873 50.9147 303.873 52.8153Z" fill="#0071BC"/>
<path opacity="0.6" d="M304.069 117.962C304.069 119.862 302.562 121.37 300.661 121.37C298.76 121.37 297.253 119.862 297.253 117.962C297.253 116.061 298.76 114.554 300.661 114.554C302.496 114.554 304.069 116.061 304.069 117.962Z" fill="#0071BC"/>
<path opacity="0.6" d="M225.422 149.159C225.422 151.059 223.914 152.567 222.014 152.567C220.113 152.567 218.605 151.059 218.605 149.159C218.605 147.258 220.113 145.75 222.014 145.75C223.914 145.75 225.422 147.258 225.422 149.159Z" fill="#0071BC"/>
<path opacity="0.6" d="M299.678 226.036C299.678 227.937 298.171 229.445 296.27 229.445C294.369 229.445 292.862 227.937 292.862 226.036C292.862 224.136 294.369 222.628 296.27 222.628C298.105 222.628 299.678 224.136 299.678 226.036Z" fill="#0071BC"/>
<path opacity="0.6" d="M310.23 267.785C310.23 269.686 308.722 271.193 306.822 271.193C304.921 271.193 303.414 269.686 303.414 267.785C303.414 265.885 304.921 264.377 306.822 264.377C308.657 264.312 310.23 265.885 310.23 267.785Z" fill="#0071BC"/>
<path opacity="0.6" d="M231.582 317.595C231.582 319.496 230.075 321.003 228.174 321.003C226.274 321.003 224.766 319.43 224.766 317.595C224.766 315.694 226.274 314.187 228.174 314.187C230.009 314.187 231.582 315.694 231.582 317.595Z" fill="#0071BC"/>
<path opacity="0.6" d="M201.696 252.383C201.696 254.284 200.189 255.791 198.288 255.791C196.387 255.791 194.88 254.284 194.88 252.383C194.88 250.483 196.387 248.975 198.288 248.975C200.189 248.975 201.696 250.483 201.696 252.383Z" fill="#0071BC"/>
<path opacity="0.6" d="M114.725 297.868C114.725 299.768 113.218 301.276 111.317 301.276C109.416 301.276 107.909 299.703 107.909 297.868C107.909 295.967 109.416 294.46 111.317 294.46C113.218 294.394 114.725 295.967 114.725 297.868Z" fill="#0071BC"/>
<path opacity="0.6" d="M145.922 330.376C145.922 332.276 144.415 333.784 142.514 333.784C140.613 333.784 139.106 332.211 139.106 330.376C139.106 328.475 140.613 326.968 142.514 326.968C144.415 326.902 145.922 328.475 145.922 330.376Z" fill="#0071BC"/>
<path opacity="0.6" d="M51.2827 282.269C51.2827 284.17 49.7753 285.677 47.8746 285.677C45.974 285.677 44.4666 284.105 44.4666 282.269C44.4666 280.369 45.974 278.861 47.8746 278.861C49.7097 278.796 51.2827 280.369 51.2827 282.269Z" fill="#0071BC"/>
<path opacity="0.6" d="M41.8449 221.842C41.8449 223.743 40.3375 225.25 38.4369 225.25C36.5362 225.25 35.0288 223.743 35.0288 221.842C35.0288 219.941 36.5362 218.434 38.4369 218.434C40.272 218.434 41.8449 219.941 41.8449 221.842Z" fill="#0071BC"/>
<path opacity="0.6" d="M7.56783 166.723C7.56783 168.624 6.06042 170.131 4.15977 170.131C2.25912 170.131 0.751709 168.558 0.751709 166.723C0.751709 164.822 2.25912 163.315 4.15977 163.315C5.99488 163.315 7.56783 164.822 7.56783 166.723Z" fill="#0071BC"/>
<path opacity="0.6" d="M43.8112 113.57C43.8112 115.471 42.3038 116.978 40.4032 116.978C38.5025 116.978 36.9951 115.471 36.9951 113.57C36.9951 111.67 38.5025 110.162 40.4032 110.162C42.2383 110.162 43.8112 111.67 43.8112 113.57Z" fill="#0071BC"/>
<path opacity="0.6" d="M44.2045 66.5785C44.2045 68.4791 42.6971 69.9865 40.7965 69.9865C38.8958 69.9865 37.3884 68.4791 37.3884 66.5785C37.3884 64.6778 38.8958 63.1704 40.7965 63.1704C42.6971 63.1704 44.2045 64.6778 44.2045 66.5785Z" fill="#0071BC"/>
<path opacity="0.6" d="M117.805 18.7347C117.805 20.6354 116.298 22.1428 114.397 22.1428C112.497 22.1428 110.989 20.6354 110.989 18.7347C110.989 16.8341 112.497 15.3267 114.397 15.3267C116.298 15.2611 117.805 16.8341 117.805 18.7347Z" fill="#0071BC"/>
<path opacity="0.6" d="M136.681 88.3378C136.681 90.2384 135.173 91.7458 133.273 91.7458C131.372 91.7458 129.865 90.2384 129.865 88.3378C129.865 86.4371 131.372 84.9297 133.273 84.9297C135.173 84.8642 136.681 86.4371 136.681 88.3378Z" fill="#0071BC"/>
<path opacity="0.6" d="M111.251 193.463C111.251 195.364 109.744 196.871 107.843 196.871C105.943 196.871 104.435 195.364 104.435 193.463C104.435 191.563 105.943 190.055 107.843 190.055C109.678 189.99 111.251 191.563 111.251 193.463Z" fill="#0071BC"/>
<path opacity="0.6" d="M228.109 41.6078C228.109 43.5084 226.601 45.0159 224.701 45.0159C222.8 45.0159 221.292 43.5084 221.292 41.6078C221.292 39.7071 222.8 38.1997 224.701 38.1997C226.601 38.1342 228.109 39.7071 228.109 41.6078Z" fill="#0071BC"/>
<path opacity="0.6" d="M208.316 3.79163C208.316 5.69228 206.808 7.19969 204.908 7.19969C203.007 7.19969 201.5 5.69228 201.5 3.79163C201.5 1.89098 203.007 0.383569 204.908 0.383569C206.743 0.318029 208.316 1.89098 208.316 3.79163Z" fill="#0071BC"/>
</g>
</g>
</svg>
