<svg width="19" height="15" viewBox="0 0 19 15" fill="none" xmlns="http://www.w3.org/2000/svg">
<path d="M5.62387 12.2147H6.81705L7.26449 9.49023H8.73111L8.925 8.29705H7.45839L7.84617 5.95046H9.32273L9.51662 4.75727H8.04006L8.4875 2.03284H7.29432L6.84688 4.75727H4.46052L4.90796 2.03284H3.71478L3.26733 4.75727H1.80071L1.60682 5.95046H3.07344L2.68566 8.29705H1.2091L1.0152 9.49023H2.49177L2.04432 12.2147H3.2375L3.68495 9.49023H6.07131L5.62387 12.2147ZM3.87884 8.29705L4.26662 5.95046H6.65299L6.2652 8.29705H3.87884Z" fill="white"/>
<path d="M15.4301 5.21466L12.7634 9.21466H18.0968L15.4301 5.21466Z" fill="white"/>
</svg>
